<svg id="Capa_1" enable-background="new 0 0 512.001 512.001" height="512" viewBox="0 0 512.001 512.001" width="512" xmlns="http://www.w3.org/2000/svg"><g><path d="m442.664 126.948c-18.556-17.004-40.79-30.055-65.372-37.828h-105.633c-24.582 7.773-46.815 20.825-65.372 37.828l-52.718 91.31c-2.673 12.157-4.094 24.783-4.094 37.742s1.421 25.585 4.094 37.742l52.718 91.31c18.556 17.004 40.79 30.055 65.372 37.828h105.633c24.582-7.773 46.815-20.825 65.372-37.828l52.718-91.31c2.673-12.157 4.094-24.783 4.094-37.742s-1.421-25.585-4.094-37.742z" fill="#efedee"/><path d="m206.275 126.97-52.718 91.31c-2.67 12.149-4.081 24.769-4.081 37.72 0 12.96 1.421 25.585 4.094 37.742l52.718 91.31c18.556 17.004 40.79 30.055 65.372 37.828h105.634v.004c24.587-7.776 46.822-20.837 65.38-37.848l16.135-27.946c-23.854 12.189-50.869 19.073-79.496 19.073-96.65 0-175-78.35-175-175 0-34.284 9.868-66.26 26.905-93.259-8.888 5.609-17.232 11.999-24.943 19.066z" fill="#d4d4d5"/><path d="m278.701 221.44 38.732-22.362c4.358-2.516 9.727-2.516 14.085 0l38.732 22.362c4.358 2.516 7.042 7.166 7.042 12.198v44.724c0 5.032-2.685 9.682-7.042 12.198l-38.732 22.362c-4.358 2.516-9.727 2.516-14.085 0l-38.732-22.362c-4.358-2.516-7.042-7.166-7.042-12.198v-44.724c0-5.032 2.684-9.682 7.042-12.198z" fill="#676f72"/><path d="m324.476 81c-18.409 0-36.151 2.85-52.817 8.12v14.242c0 5.032 2.685 9.682 7.042 12.197l38.732 22.362c4.358 2.516 9.727 2.516 14.085 0l38.732-22.362c4.358-2.516 7.042-7.166 7.042-12.197v-14.242c-16.666-5.27-34.407-8.12-52.816-8.12z" fill="#676f72"/><path d="m370.25 396.44-38.732-22.362c-4.358-2.516-9.727-2.516-14.085 0l-38.732 22.362c-4.358 2.516-7.042 7.166-7.042 12.198v14.242c16.666 5.27 34.408 8.12 52.817 8.12s36.151-2.85 52.817-8.12v-14.242c0-5.032-2.685-9.682-7.043-12.198z" fill="#4c5659"/><path d="m153.558 218.309 12.321 7.113c4.358 2.516 9.727 2.516 14.085 0l38.732-22.362c4.358-2.516 7.042-7.166 7.042-12.197v-44.724c0-5.032-2.685-9.682-7.042-12.197l-12.295-7.098c-26.13 23.899-44.974 55.624-52.843 91.465z" fill="#676f72"/><path d="m483.072 286.578c-4.358-2.516-9.727-2.516-14.085 0l-38.732 22.362c-4.358 2.516-7.042 7.166-7.042 12.198v44.724c0 5.032 2.684 9.682 7.042 12.197l12.295 7.098c26.13-23.901 44.975-55.626 52.843-91.467z" fill="#676f72"/><path d="m218.696 308.94-38.732-22.362c-4.358-2.516-9.727-2.516-14.085 0l-12.321 7.113c7.868 35.84 26.713 67.566 52.843 91.467l12.295-7.098c4.358-2.516 7.042-7.166 7.042-12.197v-44.724c0-5.033-2.684-9.683-7.042-12.199z" fill="#4c5659"/><path d="m442.55 126.842-12.295 7.098c-4.358 2.516-7.042 7.166-7.042 12.197v44.724c0 5.032 2.684 9.682 7.042 12.197l38.732 22.362c4.358 2.516 9.727 2.516 14.085 0l12.32-7.113c-7.867-35.839-26.712-67.564-52.842-91.465z" fill="#676f72"/><path d="m423.966 370.406c1.085 3.181 3.291 5.923 6.289 7.654l12.295 7.098c11.531-10.548 21.641-22.621 30.017-35.897-14.843 9.366-31.19 16.563-48.601 21.145z" fill="#4c5659"/><path d="m204.312 201.164c0-23.999 4.835-46.867 13.577-67.689l-11.488-6.632c-26.13 23.901-44.975 55.626-52.843 91.467l12.321 7.113c4.358 2.516 9.727 2.516 14.085 0l24.641-14.227c-.188-3.321-.293-6.664-.293-10.032z" fill="#4c5659"/><path d="m506.976 256c0-50.347-20.493-95.996-53.576-129.047-28.702-28.679-69.811-53.244-122.308-72.894-41.663-15.594-90.583-28.215-145.402-37.513-93.13-15.795-172.322-16.54-173.111-16.546-.026 0-.049.007-.074.008-3.568.01-6.724 2.557-7.365 6.191-.718 4.079 2.006 7.968 6.085 8.688.772.136 78.11 14.044 154.271 51.135 22.999 11.201 43.396 23.188 61.19 35.934-6.46 4.099-12.673 8.604-18.593 13.502-7.503-.841-15.141-1.647-22.918-2.417-92.889-9.198-171.83-9.633-172.617-9.636h-.032c-4.127 0-7.481 3.337-7.499 7.469-.018 4.142 3.326 7.514 7.469 7.531.78.003 79.123.438 171.328 9.575 3.243.321 6.459.651 9.657.986-6.757 6.958-13.011 14.484-18.66 22.56-2.373 3.394-1.546 8.07 1.849 10.444 3.393 2.373 8.07 1.546 10.444-1.849 6.083-8.698 12.926-16.707 20.391-23.982l7.441 4.296c2.031 1.173 3.293 3.358 3.293 5.703v44.724c0 2.345-1.262 4.53-3.292 5.703l-38.732 22.362c-2.031 1.172-4.554 1.172-6.585 0l-7.51-4.336c2.577-10.124 6.111-20.008 10.605-29.595 1.758-3.75.143-8.216-3.608-9.974-3.747-1.757-8.216-.142-9.974 3.608-10.333 22.045-16.029 45.517-17 69.869h-129.617c-4.143 0-7.5 3.357-7.5 7.5s3.357 7.5 7.5 7.5h129.615c1.884 46.364 21.143 88.322 51.433 119.526-3.228.338-6.477.67-9.751.995-92.205 9.138-170.548 9.572-171.328 9.575-4.143.018-7.486 3.39-7.469 7.531.018 4.132 3.372 7.469 7.499 7.469h.032c.787-.003 79.729-.438 172.617-9.636 7.805-.773 15.468-1.582 22.997-2.427 5.878 4.873 12.067 9.383 18.53 13.5-17.797 12.751-38.199 24.741-61.205 35.945-76.16 37.091-153.498 50.999-154.271 51.135-4.079.72-6.803 4.608-6.085 8.688.641 3.64 3.805 6.2 7.377 6.2.007 0 .015-.001.023-.001h.04c.789-.006 79.98-.751 173.11-16.546 54.819-9.298 103.739-21.919 145.402-37.513 52.534-19.664 93.665-44.249 122.37-72.954.003-.003.005-.006.008-.009 33.042-33.044 53.506-78.665 53.506-128.977zm-227.818 7.5h37.652c-.553 12.703-2.524 25.038-5.898 36.997l-28.461-16.432c-2.031-1.173-3.293-3.358-3.293-5.703zm3.292-35.564 28.462-16.432c3.374 11.959 5.344 24.293 5.898 36.996h-37.652v-14.861c0-2.345 1.262-4.531 3.292-5.703zm148.263-81.797c0-2.346 1.262-4.53 3.292-5.703l7.38-4.261c21.698 21.175 37.689 48.168 45.411 78.437l-7.475 4.316c-2.031 1.172-4.553 1.172-6.584 0l-38.732-22.362c-2.03-1.173-3.292-3.357-3.292-5.703zm-151.555-51.372c14.587-4.108 29.819-6.267 45.317-6.267 15.698 0 30.897 2.176 45.316 6.233v8.629c0 2.345-1.262 4.53-3.292 5.703l-38.731 22.361c-2.033 1.174-4.557 1.173-6.586.001l-38.731-22.362c-2.031-1.173-3.293-3.358-3.293-5.703zm-4.208 27.289 38.732 22.362c3.329 1.922 7.06 2.883 10.792 2.882 3.731 0 7.464-.961 10.793-2.882l38.733-22.362c6.656-3.845 10.791-11.008 10.791-18.693v-3.622c16.31 6.317 31.389 15.118 44.777 25.936l-3.064 1.769c-6.657 3.844-10.792 11.007-10.792 18.693v44.724c0 7.687 4.135 14.85 10.792 18.693l38.732 22.362c3.328 1.922 7.061 2.883 10.792 2.883s7.464-.961 10.792-2.883l3.15-1.819c.941 6.034 1.552 12.174 1.828 18.401h-107.006v-14.861c0-7.686-4.135-14.849-10.792-18.693l-38.732-22.361c-4.848-2.799-10.551-3.55-15.864-2.272-8.466-21.12-21.185-41.12-38.105-59.85-8.187-9.062-17.36-17.828-27.484-26.279 3.397-1.582 6.845-3.055 10.343-4.407v3.587c0 7.684 4.135 14.847 10.792 18.692zm94.842 141.444v14.862c0 2.345-1.262 4.53-3.292 5.703l-38.732 22.361c-1.022.591-2.169.882-3.315.878 4.29-14.15 6.75-28.765 7.362-43.805h37.977zm-37.978-15c-.612-15.039-3.072-29.654-7.361-43.804 1.146-.004 2.292.288 3.314.878l38.731 22.361c2.031 1.173 3.293 3.358 3.293 5.703v14.862zm-12.41 73.189c1.665.401 3.367.611 5.071.611 3.732 0 7.465-.961 10.793-2.883l38.733-22.361c6.656-3.845 10.791-11.008 10.791-18.693v-14.863h107.008c-.276 6.227-.887 12.368-1.828 18.402l-3.15-1.819c-6.656-3.844-14.928-3.844-21.584 0l-38.732 22.362c-6.657 3.844-10.792 11.007-10.792 18.693v44.724c0 7.687 4.135 14.85 10.792 18.693l3.063 1.769c-13.388 10.817-28.467 19.618-44.776 25.935v-3.621c0-7.686-4.135-14.849-10.792-18.693l-38.733-22.363c-6.655-3.842-14.927-3.844-21.584.001l-38.733 22.362c-6.656 3.845-10.791 11.008-10.791 18.693v3.62c-3.513-1.361-6.968-2.839-10.363-4.425 10.132-8.456 19.312-17.228 27.503-26.296 16.919-18.728 29.638-38.729 38.104-59.848zm121.981 54.137-7.38-4.26c-2.03-1.173-3.292-3.357-3.292-5.703v-44.724c0-2.346 1.262-4.53 3.292-5.703l38.732-22.362c2.031-1.172 4.553-1.172 6.584 0l7.475 4.316c-7.722 30.268-23.714 57.262-45.411 78.436zm-162.227 32.813c0-2.345 1.262-4.53 3.292-5.703l38.732-22.362c2.031-1.172 4.554-1.172 6.585 0l38.731 22.362c2.031 1.173 3.293 3.358 3.293 5.703v8.628c-14.419 4.057-29.618 6.233-45.316 6.233-15.699 0-30.898-2.176-45.317-6.233zm-107.377-356.241c-29.377-14.285-58.563-25.143-83.712-33.162 27.4 2.41 60.249 6.186 95.112 12.098 61.04 10.352 114.146 24.839 158.08 42.944-5.53-.507-11.126-.779-16.785-.779-29.524 0-58.159 7.18-83.698 20.367-19.921-14.95-42.98-28.817-68.997-41.468zm-12.817 177.693 3.165 1.828c3.328 1.921 7.06 2.881 10.792 2.881 3.731 0 7.464-.96 10.792-2.882l38.733-22.362c6.656-3.845 10.791-11.008 10.791-18.693v-44.724c0-7.686-4.135-14.849-10.792-18.693l-3.106-1.793c6.403-5.158 13.16-9.83 20.218-13.981 32.163 25.61 54.374 54.1 66.501 85.315l-31.108 17.959h-.001c-6.656 3.845-10.791 11.008-10.791 18.693v14.861h-107.006c.27-6.203.874-12.343 1.812-18.409zm59.274 135.771c0 2.345-1.262 4.53-3.292 5.703l-7.38 4.26c-21.698-21.175-37.689-48.168-45.412-78.437l7.473-4.315c2.033-1.174 4.557-1.173 6.586-.001l38.731 22.362c2.031 1.173 3.293 3.358 3.293 5.703v44.725zm1.144 20.462 3.064-1.769c6.656-3.845 10.791-11.008 10.791-18.693v-44.724c0-7.686-4.135-14.849-10.792-18.693l-38.732-22.362c-6.656-3.844-14.927-3.845-21.585 0l-3.149 1.818c-.941-6.034-1.552-12.174-1.828-18.401h107.007v14.862c0 7.686 4.135 14.849 10.792 18.693l31.107 17.959c-12.126 31.213-34.336 59.702-66.496 85.311-7.075-4.178-13.818-8.861-20.179-14.001zm-35.984 94.305c-34.926 5.931-67.856 9.716-95.319 12.131 25.147-8.018 54.328-18.875 83.702-33.159 26.014-12.649 49.071-26.514 68.99-41.463 25.087 13.004 53.552 20.361 83.706 20.361 5.659 0 11.255-.273 16.785-.779-43.884 18.085-96.917 32.559-157.864 42.909z"/></g></svg>